<svg width="28" height="28" viewBox="0 0 28 28" fill="none" xmlns="http://www.w3.org/2000/svg">
<path d="M11.9785 24.4997C12.1833 24.8544 12.4778 25.1489 12.8325 25.3537C13.1872 25.5584 13.5896 25.6662 13.9991 25.6662C14.4087 25.6662 14.8111 25.5584 15.1658 25.3537C15.5205 25.1489 15.815 24.8544 16.0198 24.4997M3.80481 17.88C3.65241 18.0471 3.55183 18.2548 3.51531 18.4779C3.4788 18.7011 3.50792 18.9301 3.59914 19.137C3.69036 19.3439 3.83974 19.5198 4.02911 19.6434C4.21849 19.767 4.43969 19.8328 4.66581 19.833H23.3325C23.5586 19.8331 23.7798 19.7675 23.9693 19.6441C24.1588 19.5208 24.3084 19.345 24.3999 19.1383C24.4913 18.9315 24.5207 18.7026 24.4845 18.4794C24.4483 18.2562 24.348 18.0484 24.1958 17.8812C22.6441 16.2817 20.9991 14.5818 20.9991 9.33301C20.9991 7.47649 20.2617 5.69601 18.9489 4.38326C17.6361 3.07051 15.8557 2.33301 13.9991 2.33301C12.1426 2.33301 10.3622 3.07051 9.0494 4.38326C7.73665 5.69601 6.99915 7.47649 6.99915 9.33301C6.99915 14.5818 5.35298 16.2817 3.80481 17.88Z" stroke="white" stroke-width="2" stroke-linecap="round" stroke-linejoin="round"/>
</svg>
